<svg width="15" height="15" viewBox="0 0 15 15" fill="none" xmlns="http://www.w3.org/2000/svg">
<path d="M10.7724 14.6667C11.9295 14.6667 12.9988 14.2345 13.7834 13.45C14.6393 12.5941 15.0682 11.4221 14.9912 10.1498C14.9165 8.91557 14.3703 7.7308 13.4531 6.81368C12.6696 6.03006 11.7 5.5197 10.6492 5.33786C10.1224 5.24667 9.75336 4.87763 9.66216 4.35081C9.48021 3.29998 8.96996 2.33039 8.18634 1.54688C7.26922 0.629764 6.08445 0.0834795 4.85022 0.00884367C3.57805 -0.0682539 2.40592 0.360762 1.55002 1.21667C0.694111 2.07257 0.265206 3.24459 0.342193 4.51687C0.416828 5.7511 0.963113 6.93599 1.88023 7.85299C2.66374 8.63661 3.63333 9.14686 4.68405 9.32881C5.21098 9.42001 5.5799 9.78905 5.67121 10.3159C5.85316 11.3667 6.36341 12.3362 7.14703 13.1198C8.06415 14.0369 9.24892 14.5832 10.4832 14.6578C10.5798 14.6636 10.6772 14.6667 10.7724 14.6667ZM4.56175 0.859267C4.63996 0.859267 4.71885 0.861729 4.79819 0.86654C5.82272 0.928532 6.81022 1.38597 7.57873 2.15448C8.23636 2.812 8.66403 3.62214 8.81554 4.4974C8.96906 5.38441 9.61561 6.03096 10.5026 6.18448C11.3779 6.33599 12.188 6.76367 12.8455 7.42129C13.6141 8.1898 14.0715 9.1773 14.1335 10.2017C14.1955 11.2251 13.8553 12.163 13.1759 12.8425C12.5536 13.4648 11.7 13.8074 10.7724 13.8074C10.6943 13.8074 10.6145 13.8049 10.5351 13.8001C9.51054 13.7381 8.52304 13.2808 7.75453 12.5122C7.09701 11.8547 6.66934 11.0444 6.51783 10.1693C6.36419 9.28215 5.71776 8.63572 4.83064 8.48219C3.95548 8.33068 3.14534 7.90301 2.48772 7.24539C1.71921 6.47687 1.26177 5.48937 1.19978 4.46495C1.1379 3.44153 1.47795 2.50372 2.15751 1.82416C2.78447 1.19731 3.63098 0.859267 4.56175 0.859267Z" fill="#333333"/>
<path d="M5.65734 4.87969C5.67133 4.87969 5.68565 4.87879 5.69975 4.87745C5.71351 4.87622 5.7275 4.87398 5.74126 4.87141C5.75503 4.8685 5.76879 4.86514 5.78222 4.86078C5.79542 4.85675 5.80885 4.85216 5.82172 4.84679C5.83458 4.84131 5.84756 4.83538 5.85987 4.82866C5.87218 4.82217 5.88416 4.81501 5.8959 4.80718C5.90765 4.79946 5.91884 4.79118 5.9297 4.78234C5.94055 4.77338 5.95118 4.76376 5.96125 4.75403C6.04115 4.67413 6.08691 4.56324 6.08691 4.45011C6.08691 4.43612 6.08635 4.4218 6.0849 4.40804C6.08356 4.39394 6.08121 4.37995 6.07863 4.36619C6.07584 4.35242 6.07237 4.33866 6.06834 4.32523C6.06409 4.31203 6.0595 4.2986 6.05402 4.28562C6.04853 4.27287 6.0426 4.26022 6.036 4.24791C6.0294 4.23527 6.02224 4.22329 6.01452 4.21155C6.0068 4.20002 5.99851 4.18861 5.98956 4.17775C5.98072 4.16679 5.97099 4.15627 5.96125 4.1462C5.95118 4.13646 5.94055 4.12673 5.9297 4.11789C5.91884 4.10894 5.90765 4.10065 5.8959 4.09293C5.88416 4.08521 5.87218 4.07805 5.85987 4.07145C5.84756 4.06485 5.83458 4.0588 5.82172 4.05343C5.80885 4.04795 5.79542 4.04336 5.78222 4.03911C5.76879 4.03508 5.75503 4.03161 5.74126 4.02882C5.7275 4.02624 5.71351 4.02389 5.69975 4.02244C5.67166 4.01986 5.64302 4.01986 5.61526 4.02244C5.60117 4.02389 5.58718 4.02624 5.57342 4.02882C5.55965 4.03161 5.54589 4.03508 5.5328 4.03911C5.51926 4.04336 5.50583 4.04795 5.49296 4.05343C5.48009 4.0588 5.46745 4.06485 5.45514 4.07145C5.44283 4.07805 5.43052 4.08521 5.41877 4.09293C5.40736 4.10065 5.39583 4.10894 5.38498 4.11789C5.37413 4.12673 5.36349 4.13646 5.35342 4.1462C5.34369 4.15627 5.33429 4.16679 5.32511 4.17775C5.3165 4.18861 5.30788 4.20002 5.30016 4.21155C5.29244 4.22329 5.28528 4.23527 5.27868 4.24791C5.27207 4.26022 5.26614 4.27287 5.26066 4.28562C5.25518 4.2986 5.25059 4.31203 5.24667 4.32523C5.24231 4.33866 5.23895 4.35242 5.23627 4.36619C5.23347 4.37995 5.23112 4.39394 5.23 4.40804C5.22855 4.42169 5.22776 4.43601 5.22776 4.45011C5.22776 4.56324 5.27353 4.67413 5.35342 4.75403C5.36349 4.76376 5.37413 4.7735 5.38498 4.78234C5.39583 4.79118 5.40736 4.79957 5.41877 4.80718C5.43052 4.81501 5.44283 4.82217 5.45514 4.82866C5.46745 4.83526 5.48009 4.84131 5.49296 4.84679C5.50583 4.85216 5.51926 4.85686 5.5328 4.86078C5.54589 4.86514 5.55965 4.8685 5.57342 4.87141C5.58718 4.87398 5.60117 4.87622 5.61526 4.87745C5.62903 4.87879 5.64335 4.87969 5.65734 4.87969Z" fill="#333333"/>
<path d="M7.20812 4.61788C7.22222 4.61788 7.23654 4.61732 7.25053 4.61587C7.26452 4.61442 7.27862 4.6124 7.29238 4.6096C7.30581 4.60669 7.31957 4.60334 7.333 4.59931C7.34643 4.59528 7.35963 4.59036 7.3725 4.58499C7.38548 4.57984 7.39835 4.57357 7.41065 4.56719C7.42296 4.56059 7.43527 4.55321 7.44669 4.54549C7.45844 4.53765 7.46996 4.52937 7.48081 4.52053C7.49167 4.51158 7.5023 4.50196 7.51203 4.49211C7.52199 4.48215 7.5315 4.47152 7.54034 4.46067C7.5493 4.44981 7.55758 4.43862 7.56552 4.42687C7.57335 4.41513 7.58052 4.40304 7.58701 4.39073C7.59361 4.37842 7.59965 4.36555 7.60513 4.35269C7.61028 4.33982 7.61509 4.32628 7.61912 4.31307C7.62315 4.29965 7.62662 4.286 7.62941 4.27212C7.63232 4.25847 7.63434 4.24437 7.63579 4.23061C7.63714 4.21662 7.6377 4.2023 7.6377 4.18831C7.6377 4.17421 7.63714 4.16022 7.63579 4.14612C7.63434 4.13214 7.63232 4.11815 7.62941 4.10439C7.62662 4.09062 7.62315 4.07686 7.61912 4.06365C7.61509 4.05023 7.61028 4.03702 7.60513 4.02415C7.59965 4.01095 7.59361 3.99842 7.58701 3.986C7.58052 3.97369 7.57335 3.96149 7.56552 3.94997C7.55758 3.93822 7.5493 3.9268 7.54034 3.91595C7.5315 3.90498 7.52199 3.89447 7.51203 3.88462C7.5023 3.87466 7.49167 3.86515 7.48081 3.85597C7.46996 3.84747 7.45844 3.83885 7.44669 3.83113C7.43527 3.82341 7.42296 3.81625 7.41065 3.80965C7.39835 3.80304 7.38548 3.797 7.3725 3.79152C7.35963 3.78615 7.34643 3.78156 7.333 3.7772C7.31957 3.77328 7.30581 3.76981 7.29238 3.76701C7.27862 3.76444 7.26452 3.76209 7.25053 3.76097C7.22244 3.75806 7.19413 3.75806 7.16605 3.76097C7.15195 3.76209 7.13796 3.76444 7.1242 3.76701C7.11077 3.76981 7.09701 3.77328 7.08358 3.7772C7.07004 3.78156 7.05695 3.78615 7.04397 3.79152C7.0311 3.797 7.01823 3.80304 7.00592 3.80965C6.99361 3.81625 6.9813 3.82341 6.96989 3.83113C6.95814 3.83885 6.94661 3.84747 6.93576 3.85597C6.92491 3.86515 6.91428 3.87466 6.90454 3.88462C6.89447 3.89447 6.88507 3.90498 6.87623 3.91595C6.86728 3.9268 6.85866 3.93822 6.85094 3.94997C6.84322 3.96138 6.83606 3.97369 6.82946 3.986C6.82297 3.99842 6.81693 4.01095 6.81144 4.02415C6.80629 4.03702 6.80148 4.05023 6.79745 4.06365C6.79309 4.07686 6.78973 4.09062 6.78716 4.10439C6.78425 4.11804 6.78224 4.13214 6.78078 4.14612C6.77933 4.16022 6.77854 4.17421 6.77854 4.18831C6.77854 4.2023 6.77933 4.21662 6.78078 4.23061C6.78224 4.24437 6.78425 4.25847 6.78716 4.27212C6.78973 4.28588 6.79309 4.29965 6.79745 4.31307C6.80148 4.32628 6.80629 4.33982 6.81144 4.35269C6.81693 4.36555 6.82297 4.37842 6.82946 4.39073C6.83606 4.40304 6.84322 4.41513 6.85094 4.42687C6.85866 4.43862 6.86728 4.44981 6.87623 4.46067C6.88507 4.47152 6.89447 4.48215 6.90454 4.49211C6.91428 4.50196 6.92491 4.51169 6.93576 4.52053C6.94661 4.52937 6.95814 4.53777 6.96989 4.54549C6.9813 4.55321 6.99361 4.56059 7.00592 4.56719C7.01823 4.57357 7.0311 4.57984 7.04397 4.58499C7.05695 4.59036 7.07004 4.59528 7.08358 4.59931C7.09701 4.60334 7.11077 4.60669 7.1242 4.6096C7.13796 4.6124 7.15195 4.61442 7.16605 4.61587C7.18003 4.61732 7.19413 4.61788 7.20812 4.61788Z" fill="#333333"/>
<path d="M6.03809 3.29489C6.05219 3.29489 6.06651 3.29411 6.0805 3.29254C6.09426 3.29143 6.10825 3.28919 6.12201 3.28661C6.13577 3.2837 6.14954 3.28024 6.16296 3.27598C6.17617 3.27195 6.1896 3.26737 6.20246 3.262C6.21544 3.25651 6.22831 3.25047 6.24062 3.24398C6.25293 3.23738 6.2649 3.23022 6.27665 3.2225C6.2884 3.21466 6.29993 3.20616 6.31045 3.19721C6.32163 3.18837 6.33193 3.17886 6.342 3.1689C6.35207 3.15916 6.36147 3.14853 6.37031 3.13768C6.37926 3.12671 6.38754 3.1153 6.39526 3.10355C6.40298 3.09214 6.41048 3.07983 6.41708 3.06752C6.42357 3.05521 6.42962 3.04256 6.43476 3.0297C6.44025 3.01649 6.44506 3.0034 6.44909 2.98986C6.45311 2.97677 6.45658 2.96301 6.45938 2.94924C6.46229 2.93548 6.4643 2.92138 6.46576 2.90739C6.46721 2.8934 6.46777 2.87931 6.46777 2.86532C6.46777 2.85122 6.46721 2.8369 6.46576 2.82291C6.4643 2.80915 6.46229 2.79505 6.45938 2.78139C6.45658 2.76763 6.45311 2.75387 6.44909 2.74044C6.44506 2.72724 6.44025 2.71381 6.43476 2.70094C6.42962 2.68796 6.42357 2.67509 6.41708 2.66278C6.41048 2.65047 6.40298 2.63839 6.39526 2.62664C6.38754 2.615 6.37926 2.60348 6.37031 2.59285C6.36147 2.58199 6.35207 2.57136 6.342 2.5614C6.33193 2.55133 6.32163 2.54193 6.31045 2.53298C6.29993 2.52414 6.2884 2.51586 6.27665 2.50814C6.2649 2.50042 6.25293 2.49292 6.24062 2.48632C6.22831 2.47972 6.21544 2.47379 6.20246 2.46864C6.1896 2.46316 6.17617 2.45823 6.16296 2.45432C6.14954 2.45029 6.13577 2.44682 6.12201 2.44391C6.10825 2.44134 6.09426 2.4391 6.0805 2.43764C6.05241 2.43485 6.0241 2.43485 5.99601 2.43764C5.98203 2.4391 5.96793 2.44134 5.95416 2.44391C5.9404 2.44682 5.92675 2.45029 5.91354 2.45432C5.90012 2.45823 5.88691 2.46316 5.87404 2.46864C5.86106 2.47379 5.8482 2.47972 5.83589 2.48632C5.82358 2.49292 5.81127 2.50042 5.79986 2.50814C5.78811 2.51586 5.77658 2.52414 5.76573 2.53298C5.75487 2.54193 5.74424 2.55133 5.73451 2.5614C5.72455 2.57136 5.71504 2.58199 5.7062 2.59285C5.69725 2.60348 5.68874 2.615 5.68091 2.62664C5.67319 2.63839 5.66603 2.65047 5.65954 2.66278C5.65293 2.67509 5.64689 2.68796 5.64141 2.70094C5.63626 2.71381 5.63145 2.72724 5.62742 2.74044C5.62306 2.75387 5.6197 2.76763 5.61713 2.78139C5.61422 2.79505 5.6122 2.80915 5.61075 2.82291C5.60941 2.8369 5.60851 2.85122 5.60851 2.86532C5.60851 2.97845 5.65428 3.089 5.73451 3.1689C5.74424 3.17897 5.75487 3.18837 5.76573 3.19721C5.77658 3.20616 5.78811 3.21466 5.79986 3.2225C5.81127 3.23022 5.82358 3.23738 5.83589 3.24398C5.8482 3.25047 5.86106 3.25651 5.87404 3.262C5.88691 3.26737 5.90012 3.27195 5.91354 3.27598C5.92675 3.28024 5.9404 3.2837 5.95416 3.28661C5.96793 3.28919 5.98203 3.29143 5.99601 3.29254C6.01 3.29411 6.0241 3.29489 6.03809 3.29489Z" fill="#333333"/>
</svg>
